<svg xmlns="http://www.w3.org/2000/svg" version="1.1" xmlns:xlink="http://www.w3.org/1999/xlink" xmlns:svgjs="http://svgjs.dev/svgjs" width="1500" height="1500" viewBox="0 0 1500 1500"><rect width="1500" height="1500" fill="#000000"></rect><g transform="matrix(0.6666666666666666,0,0,0.6666666666666666,249.78425655976667,249.78425655976673)"><svg viewBox="0 0 343 343" data-background-color="#ffffff" preserveAspectRatio="xMidYMid meet" height="1500" width="1500" xmlns="http://www.w3.org/2000/svg" xmlns:xlink="http://www.w3.org/1999/xlink"><g id="tight-bounds" transform="matrix(1,0,0,1,0.0740000000000407,0.07400000000001228)"><svg viewBox="0 0 342.85155851775386 342.85155851775386" height="342.85155851775386" width="342.85155851775386"><g><svg></svg></g><g><svg viewBox="0 0 342.85155851775386 342.85155851775386" height="342.85155851775386" width="342.85155851775386"><g><path d="M0 171.426c0-94.676 76.75-171.426 171.426-171.426 94.676 0 171.426 76.75 171.426 171.426 0 94.676-76.75 171.426-171.426 171.426-94.676 0-171.426-76.75-171.426-171.426zM171.426 336.627c91.238 0 165.201-73.963 165.201-165.201 0-91.238-73.963-165.201-165.201-165.201-91.238 0-165.201 73.963-165.201 165.201 0 91.238 73.963 165.201 165.201 165.201z" data-fill-palette-color="tertiary" fill="#ffffff" stroke="transparent"></path><ellipse rx="164.56874808852186" ry="164.56874808852186" cx="171.42577925887693" cy="171.42577925887693" fill="#ffffff" stroke="transparent" stroke-width="0" fill-opacity="1" data-fill-palette-color="tertiary"></ellipse></g><g transform="matrix(1,0,0,1,64.84655864529837,86.65794511837507)"><svg viewBox="0 0 213.1584412271571 169.53566828100372" height="169.53566828100372" width="213.1584412271571"><g><svg viewBox="0 0 213.1584412271571 169.53566828100372" height="169.53566828100372" width="213.1584412271571"><g><svg viewBox="0 0 213.1584412271571 169.53566828100372" height="169.53566828100372" width="213.1584412271571"><g transform="matrix(1,0,0,1,0,100.50767565562901)"><svg viewBox="0 0 213.1584412271571 69.02799262537471" height="69.02799262537471" width="213.1584412271571"><g id="textblocktransform"><svg viewBox="0 0 213.1584412271571 69.02799262537471" height="69.02799262537471" width="213.1584412271571" id="textblock"><g><svg viewBox="0 0 213.1584412271571 69.02799262537471" height="69.02799262537471" width="213.1584412271571"><g transform="matrix(1,0,0,1,0,0)"><svg width="213.1584412271571" viewBox="3.4 -37.9 154.39 50" height="69.02799262537471" data-palette-color="#ffffff"><path d="M3.65 11.4L3.65-19.35Q3.65-21.15 3.4-24.7L3.4-24.7 7.1-25.2 7.55-22.5Q8.55-23.35 9.63-24.03 10.7-24.7 11.98-25.18 13.25-25.65 14.7-25.65L14.7-25.65Q16.75-25.65 18.57-24.95 20.4-24.25 21.78-22.7 23.15-21.15 23.95-18.68 24.75-16.2 24.75-12.6L24.75-12.6Q24.75-8.95 23.68-6.43 22.6-3.9 20.88-2.33 19.15-0.75 16.98-0.05 14.8 0.65 12.55 0.65L12.55 0.65Q10.15 0.6 7.65 0.05L7.65 0.05 7.65 10.9 3.65 11.4ZM12.55-2.85L12.55-2.85Q14.65-2.85 16.15-3.6 17.65-4.35 18.63-5.68 19.6-7 20.05-8.72 20.5-10.45 20.5-12.4L20.5-12.4Q20.5-14.15 20.18-15.9 19.85-17.65 19.13-19.03 18.4-20.4 17.2-21.28 16-22.15 14.25-22.15L14.25-22.15Q12.95-22.15 11.8-21.68 10.65-21.2 9.63-20.53 8.6-19.85 7.65-19L7.65-19 7.65-3.65Q8.2-3.45 8.88-3.28 9.55-3.1 10.48-2.98 11.4-2.85 12.55-2.85ZM30.6 0L30.6-37.45 34.6-37.9 34.6 0 30.6 0ZM55.8-5.85L55.8-11.55Q54.8-11.5 53.9-11.45 53-11.4 52.12-11.33 51.25-11.25 50.55-11.15L50.55-11.15Q46.95-10.7 45.45-9.58 43.95-8.45 43.95-6.35L43.95-6.35Q43.95-4.6 45.02-3.73 46.09-2.85 47.84-2.85L47.84-2.85Q50.25-2.85 52.12-3.68 54-4.5 55.8-5.85L55.8-5.85ZM56.25 0.4L55.75-2.35Q53.4-1 51.37-0.18 49.34 0.65 47 0.65L47 0.65Q43.65 0.65 41.67-0.98 39.7-2.6 39.7-6.35L39.7-6.35Q39.7-8.3 40.7-9.75 41.7-11.2 43.32-12.18 44.95-13.15 47-13.7 49.05-14.25 51.2-14.4L51.2-14.4Q52.09-14.5 53.55-14.58 55-14.65 55.8-14.7L55.8-14.7Q55.8-16.45 55.7-17.82 55.59-19.2 55.09-20.18 54.59-21.15 53.62-21.65 52.65-22.15 50.84-22.15L50.84-22.15Q49.4-22.15 48.05-21.98 46.7-21.8 45.65-21.6L45.65-21.6Q44.4-21.35 43.34-21.05L43.34-21.05 42.55-24.5Q43.8-24.8 45.25-25.05L45.25-25.05Q46.5-25.3 48.15-25.48 49.8-25.65 51.7-25.65L51.7-25.65Q54.25-25.65 55.82-24.9 57.4-24.15 58.27-22.88 59.15-21.6 59.47-19.98 59.8-18.35 59.8-16.55L59.8-16.55 59.8-4.55Q59.8-3.85 59.82-3.08 59.84-2.3 59.92-1.55 60-0.8 60.09 0L60.09 0 56.25 0.4ZM73.39-0.65L63.34-25.15 67.59-25.15 72.29-13.8Q72.99-12.15 73.57-10.5 74.14-8.85 74.59-7.55L74.59-7.55Q75.14-6 75.54-4.55L75.54-4.55 75.59-4.55Q76.04-6 76.59-7.55L76.59-7.55Q77.04-8.85 77.64-10.5 78.24-12.15 78.89-13.8L78.89-13.8 83.24-25.15 87.44-25.15 75.54 4.85Q74.84 6.7 73.72 8.05 72.59 9.4 71.54 10.3L71.54 10.3Q70.29 11.35 68.94 12.1L68.94 12.1 66.99 8.65Q68.04 8.15 68.94 7.4L68.94 7.4Q69.74 6.75 70.54 5.78 71.34 4.8 71.84 3.45L71.84 3.45 73.39-0.65ZM91.49 0L91.49-20.15Q91.54-21.2 91.24-24.7L91.24-24.7 94.94-25.2 95.49-22Q96.99-23 98.47-23.75 99.94-24.5 101.49-25.08 103.04-25.65 104.49-25.65L104.49-25.65Q106.54-25.65 107.92-25.18 109.29-24.7 110.14-23.6 110.99-22.5 111.37-20.7 111.74-18.9 111.74-16.2L111.74-16.2 111.74 0 107.74 0 107.74-15.75Q107.74-17.25 107.69-18.43 107.64-19.6 107.27-20.43 106.89-21.25 106.12-21.7 105.34-22.15 103.94-22.15L103.94-22.15Q102.64-22.15 101.19-21.58 99.74-21 98.34-20.25 96.94-19.5 95.49-18.5L95.49-18.5 95.49 0 91.49 0ZM136.64-3.95L137.39-0.6Q136.24-0.25 135.01 0 133.79 0.25 132.31 0.45 130.84 0.65 129.24 0.65L129.24 0.65Q126.74 0.65 124.59-0.05 122.44-0.75 120.84-2.3 119.24-3.85 118.31-6.33 117.39-8.8 117.39-12.4L117.39-12.4Q117.39-15.65 118.29-18.13 119.19-20.6 120.76-22.28 122.34-23.95 124.46-24.8 126.59-25.65 129.09-25.65L129.09-25.65Q131.54-25.65 133.34-24.7 135.14-23.75 136.31-22.13 137.49-20.5 138.06-18.32 138.64-16.15 138.64-13.75L138.64-13.75 137.89-11.55 121.74-11.55Q121.74-10 122.14-8.45 122.54-6.9 123.51-5.65 124.49-4.4 126.06-3.63 127.64-2.85 129.99-2.85L129.99-2.85Q131.49-2.85 132.74-3.03 133.99-3.2 134.91-3.43 135.84-3.65 136.64-3.95L136.64-3.95ZM121.89-14.75L134.49-14.75Q134.49-15.1 134.34-16.3 134.19-17.5 133.64-18.8 133.09-20.1 131.94-21.13 130.79-22.15 128.89-22.15L128.89-22.15Q126.79-22.15 125.44-21.28 124.09-20.4 123.29-19.2 122.49-18 122.19-16.75 121.89-15.5 121.89-14.75L121.89-14.75ZM145.94-32.15L149.94-32.65 149.94-25.15 157.19-25.15 157.19-21.9 149.94-21.9 149.94-8.55Q149.94-6.9 150.01-5.8 150.09-4.7 150.34-4.05 150.59-3.4 151.04-3.13 151.49-2.85 152.19-2.85L152.19-2.85Q154.09-2.9 156.59-4.25L156.59-4.25 157.79-1.2Q156.14-0.1 154.71 0.28 153.29 0.65 151.89 0.65L151.89 0.65Q148.59 0.65 147.26-1.23 145.94-3.1 145.94-7.45L145.94-7.45 145.94-21.9 141.34-21.9 141.34-25.15 145.94-25.15 145.94-32.15Z" opacity="1" transform="matrix(1,0,0,1,0,0)" fill="#000000" class="wordmark-text-0" data-fill-palette-color="quaternary" id="text-0"></path></svg></g></svg></g></svg></g></svg></g><g transform="matrix(1,0,0,1,40.713262274387006,0)"><svg viewBox="0 0 131.7319166783831 84.21182326860105" height="84.21182326860105" width="131.7319166783831"><g><svg xmlns="http://www.w3.org/2000/svg" xmlns:xlink="http://www.w3.org/1999/xlink" version="1.1" x="0" y="0" viewBox="5.084 18.16 90 57.534000000000006" enable-background="new 0 0 100 100" xml:space="preserve" height="84.21182326860105" width="131.7319166783831" class="icon-icon-0" data-fill-palette-color="quaternary" id="icon-0"><g fill="#ffffff" data-fill-palette-color="quaternary"><path d="M93.32 18.16H6.848C5.875 18.16 5.084 18.951 5.084 19.924V73.93C5.084 74.903 5.875 75.694 6.848 75.694H93.32C94.293 75.694 95.084 74.903 95.084 73.93V19.924C95.084 18.951 94.293 18.16 93.32 18.16M91.591 73.228V70.762H94.262V73.228zM9.399 31.311V33.777H5.906V31.311zM5.906 30.489V28.023H9.399V30.489zM9.399 34.598V37.064H5.906V34.598zM9.399 37.886V40.352H5.906V37.886zM9.399 41.174V43.64H5.906V41.174zM9.399 44.461V46.927H5.906V44.461zM9.399 47.749V50.215H5.906V47.749zM9.399 51.037V53.503H5.906V51.037zM9.399 54.324V56.79H5.906V54.324zM9.399 57.612V60.078H5.906V57.612zM9.399 60.9V63.366H5.906V60.9zM9.399 64.187V66.653H5.906V64.187zM9.399 27.201H5.906V24.735H9.399zM5.906 67.475H9.399V69.941H5.906zM9.399 23.913H5.906V21.447H9.399zM5.906 70.763H9.399V73.229H5.906zM10.221 74.667V18.982H90.769V74.872H10.158A0.4 0.4 0 0 0 10.221 74.667M91.591 64.187H94.262V66.653H91.591zM91.591 63.365V60.9H94.262V63.366zM91.591 60.078V57.612H94.262V60.078zM91.591 56.79V54.324H94.262V56.79zM91.591 53.502V51.036H94.262V53.502zM91.591 50.215V47.749H94.262V50.215zM91.591 46.927V44.461H94.262V46.927zM91.591 43.639V41.173H94.262V43.639zM91.591 40.352V37.886H94.262V40.352zM91.591 37.064V34.598H94.262V37.064zM91.591 33.776V31.31H94.262V33.776zM91.591 30.489V28.023H94.262V30.489zM91.591 27.201V24.735H94.262V27.201zM91.591 67.475H94.262V69.941H91.591zM94.262 23.913H91.591V21.447H94.262zM94.262 19.924V20.626H91.591V18.982H93.32C93.839 18.982 94.262 19.404 94.262 19.924M6.848 18.982H9.399V20.626H5.906V19.924C5.906 19.404 6.328 18.982 6.848 18.982M5.93 74.05H9.399V74.666C9.399 74.743 9.426 74.81 9.462 74.872H6.848A0.93 0.93 0 0 1 5.93 74.05M93.32 74.872H91.591V74.05H94.238A0.93 0.93 0 0 1 93.32 74.872" fill="#000000" data-fill-palette-color="quaternary"></path><path d="M43.508 37.382A0.413 0.413 0 0 0 42.891 37.738V57.073A0.41 0.41 0 0 0 43.302 57.484 0.4 0.4 0 0 0 43.508 57.429L60.253 47.762A0.41 0.41 0 0 0 60.253 47.05zM43.714 56.361V38.449L59.226 47.405z" fill="#000000" data-fill-palette-color="quaternary"></path><path d="M49.646 26.285A20.95 20.95 0 0 0 34.384 32.228 20.95 20.95 0 0 0 28.002 46.749 20.92 20.92 0 0 0 33.751 61.809 20.92 20.92 0 0 0 49.066 68.4 20.94 20.94 0 0 0 63.726 62.449 20.95 20.95 0 0 0 70.108 47.928C70.435 36.319 61.255 26.61 49.646 26.285M48.49 67.57A20.1 20.1 0 0 1 34.35 61.243 20.1 20.1 0 0 1 28.825 46.771C29.134 35.739 38.016 27.098 49.046 27.098 49.239 27.098 49.43 27.101 49.624 27.106 60.78 27.419 69.602 36.749 69.289 47.905 68.974 59.129 59.783 67.884 48.49 67.57" fill="#000000" data-fill-palette-color="quaternary"></path></g></svg></g></svg></g><g></g></svg></g></svg></g></svg></g></svg></g><defs></defs></svg><rect width="342.85155851775386" height="342.85155851775386" fill="none" stroke="none" visibility="hidden"></rect></g></svg></g></svg>